<svg width="11" height="7" viewBox="0 0 11 7" fill="none" xmlns="http://www.w3.org/2000/svg">
<path d="M3.12469 0.788C3.65269 0.788 4.10869 0.892 4.49269 1.1C4.88202 1.308 5.18335 1.61733 5.39669 2.028C5.61535 2.43333 5.72469 2.94 5.72469 3.548C5.72469 4.19867 5.59669 4.75333 5.34069 5.212C5.09002 5.66533 4.74069 6.012 4.29269 6.252C3.85002 6.492 3.33269 6.612 2.74069 6.612C2.43135 6.612 2.13269 6.57467 1.84469 6.5C1.55669 6.43067 1.30869 6.332 1.10069 6.204L1.67669 5.068C1.83669 5.18 2.00202 5.25733 2.17269 5.3C2.34869 5.33733 2.52735 5.356 2.70869 5.356C3.14069 5.356 3.48469 5.22533 3.74069 4.964C3.99669 4.70267 4.12469 4.32133 4.12469 3.82C4.12469 3.72933 4.12469 3.636 4.12469 3.54C4.12469 3.43867 4.11669 3.33733 4.10069 3.236L4.49269 3.564C4.39669 3.76133 4.27135 3.92667 4.11669 4.06C3.96202 4.19333 3.78069 4.29467 3.57269 4.364C3.36469 4.43333 3.12735 4.468 2.86069 4.468C2.50869 4.468 2.18602 4.396 1.89269 4.252C1.60469 4.10267 1.37269 3.89733 1.19669 3.636C1.02069 3.36933 0.932688 3.05733 0.932688 2.7C0.932688 2.31067 1.03135 1.97467 1.22869 1.692C1.42602 1.404 1.69002 1.18267 2.02069 1.028C2.35135 0.868 2.71935 0.788 3.12469 0.788ZM3.22869 1.916C3.07935 1.916 2.94869 1.94533 2.83669 2.004C2.72469 2.06267 2.63402 2.14533 2.56469 2.252C2.50069 2.35333 2.46869 2.47867 2.46869 2.628C2.46869 2.84133 2.53802 3.012 2.67669 3.14C2.82069 3.268 3.00735 3.332 3.23669 3.332C3.39135 3.332 3.52735 3.30267 3.64469 3.244C3.76202 3.18533 3.85269 3.10267 3.91669 2.996C3.98069 2.88933 4.01269 2.764 4.01269 2.62C4.01269 2.48133 3.98069 2.36133 3.91669 2.26C3.85269 2.15333 3.76202 2.07067 3.64469 2.012C3.52735 1.948 3.38869 1.916 3.22869 1.916ZM8.32 0.788C8.848 0.788 9.304 0.892 9.688 1.1C10.0773 1.308 10.3787 1.61733 10.592 2.028C10.8107 2.43333 10.92 2.94 10.92 3.548C10.92 4.19867 10.792 4.75333 10.536 5.212C10.2853 5.66533 9.936 6.012 9.488 6.252C9.04533 6.492 8.528 6.612 7.936 6.612C7.62667 6.612 7.328 6.57467 7.04 6.5C6.752 6.43067 6.504 6.332 6.296 6.204L6.872 5.068C7.032 5.18 7.19733 5.25733 7.368 5.3C7.544 5.33733 7.72267 5.356 7.904 5.356C8.336 5.356 8.68 5.22533 8.936 4.964C9.192 4.70267 9.32 4.32133 9.32 3.82C9.32 3.72933 9.32 3.636 9.32 3.54C9.32 3.43867 9.312 3.33733 9.296 3.236L9.688 3.564C9.592 3.76133 9.46667 3.92667 9.312 4.06C9.15733 4.19333 8.976 4.29467 8.768 4.364C8.56 4.43333 8.32267 4.468 8.056 4.468C7.704 4.468 7.38133 4.396 7.088 4.252C6.8 4.10267 6.568 3.89733 6.392 3.636C6.216 3.36933 6.128 3.05733 6.128 2.7C6.128 2.31067 6.22667 1.97467 6.424 1.692C6.62133 1.404 6.88533 1.18267 7.216 1.028C7.54667 0.868 7.91467 0.788 8.32 0.788ZM8.424 1.916C8.27467 1.916 8.144 1.94533 8.032 2.004C7.92 2.06267 7.82933 2.14533 7.76 2.252C7.696 2.35333 7.664 2.47867 7.664 2.628C7.664 2.84133 7.73333 3.012 7.872 3.14C8.016 3.268 8.20267 3.332 8.432 3.332C8.58667 3.332 8.72267 3.30267 8.84 3.244C8.95733 3.18533 9.048 3.10267 9.112 2.996C9.176 2.88933 9.208 2.764 9.208 2.62C9.208 2.48133 9.176 2.36133 9.112 2.26C9.048 2.15333 8.95733 2.07067 8.84 2.012C8.72267 1.948 8.584 1.916 8.424 1.916Z" fill="#141414"/>
</svg>
